<svg width="85" height="66" viewBox="0 0 85 66" fill="none" xmlns="http://www.w3.org/2000/svg">
<path d="M4.98565 30.7512C8.41222 29.1678 12.3619 29.2874 16.0957 29.6603C16.1201 29.6622 16.1446 29.659 16.1677 29.6509C16.1909 29.6428 16.212 29.63 16.23 29.6134C16.2479 29.5967 16.2622 29.5765 16.2719 29.554C16.2817 29.5315 16.2866 29.5073 16.2865 29.4828C16.2856 29.4106 16.2616 29.3407 16.2178 29.2833C16.1741 29.2258 16.1131 29.184 16.0437 29.164C13.1178 28.3047 10.0478 28.0492 7.02014 28.4129C20.418 20.1185 39.9155 13.578 53.5978 24.5164C49.4015 26.3776 45.2803 29.0079 42.9639 33.1241C41.5432 35.4672 40.8682 38.1869 41.0286 40.9224C41.3879 47.6026 47.7812 52.8735 54.2447 51.1535C65.9743 48.0321 66.0961 32.4244 58.1003 24.0563C64.1173 21.7025 70.4567 20.1422 76.8314 19.0874C76.866 19.0822 76.8971 19.0636 76.9182 19.0357C76.9392 19.0078 76.9485 18.9727 76.9439 18.938C76.9408 18.9097 76.932 18.8824 76.9183 18.8575C76.9045 18.8326 76.886 18.8106 76.8638 18.7929C76.8415 18.7752 76.816 18.762 76.7886 18.7541C76.7613 18.7463 76.7327 18.7439 76.7044 18.7471C70.0727 19.5011 63.4978 20.8408 57.1898 23.0699C43.3874 9.37865 20.6029 15.7985 7.51069 26.9868C9.5204 25.268 9.75692 21.194 9.18606 19.2415C9.17277 19.177 9.13489 19.1202 9.08045 19.0832C9.02602 19.0461 8.95931 19.0317 8.89444 19.043C8.83613 19.058 8.78298 19.0885 8.74069 19.1313C8.6984 19.1742 8.66857 19.2277 8.65438 19.2862C7.77846 22.8782 6.09628 25.8016 3.51594 29.1015C2.45767 30.4557 2.35236 31.967 4.98565 30.7512ZM57.2191 28.4652C62.353 35.0511 61.1545 47.2991 53.2025 48.7765C48.5944 49.6345 44.1239 46.4856 43.3021 41.8702C42.8297 39.1874 43.3027 36.4237 44.6405 34.0507C46.7672 30.0544 50.7321 27.4636 54.7293 25.527C55.6509 26.4249 56.4846 27.4087 57.2191 28.4652Z" fill="#141414"/>
<path d="M61.7065 51.3526C62.3481 50.681 63.0479 50.0674 63.7975 49.519C63.8303 49.4951 63.8701 49.4826 63.9107 49.4836C63.9513 49.4846 63.9904 49.499 64.022 49.5245C64.0536 49.55 64.0759 49.5853 64.0853 49.6248C64.0948 49.6643 64.091 49.7058 64.0745 49.7429C63.8584 50.1933 63.5534 50.5953 63.1777 50.9246C62.8021 51.254 62.3636 51.5038 61.8887 51.659C61.8496 51.6703 61.8078 51.6683 61.7699 51.6534C61.732 51.6384 61.7001 51.6112 61.6793 51.5762C61.6584 51.5412 61.6498 51.5002 61.6547 51.4598C61.6596 51.4193 61.6778 51.3816 61.7065 51.3526Z" fill="#002B6B"/>
<path d="M65.3629 47.5568C67.3554 43.4248 68.338 38.531 67.3697 33.6091C67.3428 33.509 67.4943 33.478 67.5432 33.5626C70.0323 37.9936 68.7525 44.2069 65.5075 47.6516C65.4927 47.6645 65.4741 47.6721 65.4546 47.6735C65.4351 47.6748 65.4157 47.6697 65.3993 47.659C65.3829 47.6482 65.3705 47.6325 65.3639 47.614C65.3574 47.5956 65.357 47.5755 65.3629 47.5568Z" fill="#002B6B"/>
<path d="M25.6754 13.9504C23.6899 14.2935 21.7742 14.9598 20.0044 15.923C19.9917 15.9283 19.9776 15.9291 19.9644 15.9253C19.9511 15.9214 19.9397 15.9131 19.9319 15.9017C19.9241 15.8904 19.9204 15.8767 19.9215 15.8629C19.9226 15.8492 19.9285 15.8363 19.938 15.8263C21.3766 14.3345 23.6191 13.6001 25.6739 13.8292C25.6876 13.8322 25.7 13.8398 25.7089 13.8507C25.7178 13.8616 25.7227 13.8752 25.7229 13.8892C25.7231 13.9033 25.7185 13.917 25.7098 13.9281C25.7012 13.9392 25.6891 13.9471 25.6754 13.9504Z" fill="#002B6B"/>
</svg>
