<svg width="48" height="48" viewBox="0 0 48 48" fill="none" xmlns="http://www.w3.org/2000/svg">
<g clip-path="url(#clip0_107_1734)">
<path d="M21.8438 0.187502C17.7657 1.05938 14.6063 4.275 13.8375 8.34375C13.65 9.3375 13.6407 11.2781 13.8282 12.2531C14.1657 14.0438 14.7563 15.2531 16.35 17.3906C17.0063 18.2625 17.7094 19.3406 17.9344 19.7719L18.3282 20.5594L18.3563 24.1313L18.3938 27.7031L19.5375 28.8469L20.6907 30H24H27.3094L28.4625 28.8563L29.6063 27.7031L29.6438 24.1313L29.6719 20.5594L30.0657 19.7719C30.2907 19.3406 30.9938 18.2625 31.65 17.3906C33.2438 15.2531 33.8344 14.0438 34.1719 12.2531C34.35 11.2875 34.35 9.3375 34.1719 8.37188C33.3844 4.2 30.1125 0.928127 25.9407 0.140627C24.9 -0.0562477 22.8657 -0.0374985 21.8438 0.187502ZM25.4813 2.07188C28.1719 2.49375 30.7688 4.63125 31.7907 7.26563C32.5125 9.1125 32.5407 11.2594 31.8844 13.1625C31.6032 13.9688 31.125 14.7656 30.1688 16.0594C28.5563 18.2156 27.9563 19.2656 27.7969 20.2219L27.7313 20.625H26.3344H24.9375V16.6688V12.7219L25.875 11.7563C26.8032 10.8 26.8125 10.7906 26.8125 10.3313C26.8125 9.68438 26.5032 9.375 25.8657 9.375C25.425 9.375 25.3782 9.40313 24.7032 10.0406L24 10.7156L23.2969 10.0406C22.6219 9.40313 22.575 9.375 22.1344 9.375C21.4969 9.375 21.1875 9.68438 21.1875 10.3313C21.1875 10.7813 21.1969 10.8 22.0782 11.7094L22.9688 12.6281V16.6219V20.625H21.6188H20.2688L20.2032 20.2219C20.0438 19.2938 19.3782 18.1031 17.9532 16.2188C16.95 14.8969 16.5375 14.2313 16.2188 13.3969C15.8157 12.3375 15.6563 11.4844 15.6563 10.3125C15.6563 7.9875 16.4907 5.99063 18.15 4.35938C20.1 2.42813 22.6688 1.63125 25.4813 2.07188ZM27.75 23.4375V24.375H24H20.25V23.4375V22.5H24H27.75V23.4375ZM27.75 26.4563C27.75 26.5969 27.4969 26.925 27.0282 27.3938L26.2969 28.125H24H21.7032L20.9813 27.4031C20.4938 26.925 20.25 26.6063 20.25 26.4656V26.25H24H27.75V26.4563Z" fill="#141414"/>
<path d="M10.1625 1.6875C9.69372 1.875 9.48747 2.71875 9.79685 3.15938C10.0125 3.46875 11.9156 4.5 12.2718 4.5C12.7218 4.5 13.2187 3.98438 13.2187 3.525C13.2187 3.06563 12.9 2.74688 11.8031 2.10938C10.9125 1.59375 10.5843 1.50938 10.1625 1.6875Z" fill="#141414"/>
<path d="M36.1219 2.15625C35.0437 2.79375 34.7812 3.06562 34.7812 3.53437C34.7812 3.98438 35.2875 4.5 35.7281 4.5C36.0844 4.5 37.9875 3.46875 38.2031 3.15937C38.3625 2.925 38.3906 2.325 38.25 2.05312C38.1187 1.81875 37.6687 1.59375 37.3406 1.59375C37.1906 1.59375 36.6656 1.8375 36.1219 2.15625Z" fill="#141414"/>
<path d="M7.83755 9.61875C7.49067 9.975 7.49067 10.65 7.83755 11.0062C8.0813 11.25 8.10005 11.25 9.4688 11.25C10.8375 11.25 10.8563 11.25 11.1 11.0062C11.2969 10.8094 11.3438 10.6687 11.3438 10.3125C11.3438 9.95625 11.2969 9.81562 11.1 9.61875C10.8563 9.375 10.8375 9.375 9.4688 9.375C8.10005 9.375 8.0813 9.375 7.83755 9.61875Z" fill="#141414"/>
<path d="M36.9 9.61875C36.7031 9.81562 36.6562 9.95625 36.6562 10.3125C36.6562 10.6687 36.7031 10.8094 36.9 11.0062C37.1438 11.25 37.1625 11.25 38.5313 11.25C39.9 11.25 39.9188 11.25 40.1625 11.0062C40.3594 10.8094 40.4063 10.6687 40.4063 10.3125C40.4063 9.95625 40.3594 9.81562 40.1625 9.61875C39.9188 9.375 39.9 9.375 38.5313 9.375C37.1625 9.375 37.1438 9.375 36.9 9.61875Z" fill="#141414"/>
<path d="M10.9688 16.6875C9.80625 17.3437 9.65625 17.5031 9.65625 18.0562C9.65625 18.6 9.9375 18.9281 10.4719 19.0031C10.8281 19.05 10.9594 19.0031 11.7844 18.525C12.9 17.8781 13.2188 17.5593 13.2188 17.1C13.2188 16.8375 13.1438 16.6875 12.9 16.4437C12.4313 15.975 12.1594 16.0125 10.9688 16.6875Z" fill="#141414"/>
<path d="M35.1 16.4437C34.8563 16.6875 34.7812 16.8375 34.7812 17.1C34.7812 17.5593 35.1 17.8781 36.2156 18.525C37.0406 19.0031 37.1719 19.05 37.5281 19.0031C38.0531 18.9281 38.3438 18.6 38.3438 18.0656C38.3438 17.8406 38.2781 17.5781 38.2031 17.4656C38.1281 17.3625 37.6031 17.0156 37.05 16.6968C35.8313 16.0125 35.5688 15.975 35.1 16.4437Z" fill="#141414"/>
<path d="M14.0438 32.25C12.8344 32.5031 11.8781 32.8406 9.89062 33.7312C6.87188 35.0719 5.46563 35.4562 2.86875 35.6625C0.84375 35.8219 0.9375 35.7187 0.9375 37.9312V39.5625H0.7125C0.590625 39.5625 0.384375 39.675 0.24375 39.8062L0 40.0594V42.6094V45.1594L0.24375 45.4125L0.496875 45.6562H10.3125H20.1375L20.4375 46.1156C21.2156 47.3344 22.4719 48 24 48C25.5656 48 26.8406 47.2969 27.6375 46.0031L27.8625 45.6562H37.6781H47.5031L47.7563 45.4125L48 45.1594V42.6094V40.0594L47.7563 39.8062C47.6156 39.675 47.4094 39.5625 47.2875 39.5625H47.0625V37.9312C47.0625 35.7187 47.1562 35.8219 45.1313 35.6625C42.525 35.4562 41.1 35.0625 38.1094 33.7219C35.2406 32.4375 33.8156 32.0625 31.875 32.0625C29.9438 32.0625 28.5375 32.4656 27.0375 33.4594C26.2031 34.0125 24.7781 35.3812 24.2813 36.1219C24.15 36.3094 24.0281 36.4688 24 36.4688C23.9719 36.4688 23.85 36.3094 23.7188 36.1219C23.5875 35.9344 23.1094 35.3812 22.6406 34.8937C21.2625 33.45 19.65 32.5219 17.925 32.1937C16.95 32.0062 15.0563 32.0344 14.0438 32.25ZM17.6906 34.1719C19.5 34.5937 21.225 35.925 22.5469 37.9219C23.0438 38.6625 23.0625 38.7188 23.0625 39.3281C23.0625 39.8906 23.0438 39.9469 22.9031 39.8906C22.0594 39.5719 21.8813 39.5625 12.2625 39.5625H2.8125V38.5969V37.6219L3.675 37.5656C5.76562 37.425 7.67813 36.8812 10.6875 35.55C13.575 34.2844 14.4094 34.05 16.0781 34.0406C16.6781 34.0406 17.3531 34.0875 17.6906 34.1719ZM33.5063 34.1719C34.5094 34.3781 35.5594 34.7625 37.5 35.625C40.275 36.8625 42.2625 37.425 44.325 37.5656L45.1875 37.6219V38.5969V39.5625H35.7375C26.1188 39.5625 25.9406 39.5719 25.1063 39.8906C24.9563 39.9469 24.9375 39.8906 24.9375 39.3281C24.9375 38.7188 24.9563 38.6625 25.4531 37.9219C26.7656 35.9531 28.4906 34.6031 30.2625 34.1719C30.9844 34.0031 32.6625 34.0031 33.5063 34.1719ZM22.0781 41.7656C22.4719 41.9719 22.7438 42.1969 23.0344 42.5812C23.4656 43.1437 23.7656 43.2844 24.2813 43.1719C24.4688 43.1344 24.6844 42.9469 24.9656 42.5812C25.2563 42.1969 25.5281 41.9719 25.9219 41.7656L26.475 41.4844L36.2531 41.4562L46.0312 41.4281V42.6094V43.7812H36.3938C25.5844 43.7812 26.5031 43.7156 26.1563 44.5031C25.8563 45.1875 25.5188 45.5625 24.9938 45.8062C24.3375 46.1062 23.5875 46.1062 22.9875 45.8062C22.425 45.5156 22.1906 45.2719 21.8906 44.6062C21.75 44.3062 21.5531 43.9969 21.4406 43.9219C21.2625 43.8 20.0344 43.7812 11.5594 43.7812H1.875V42.6094V41.4281L11.7 41.4562L21.525 41.4844L22.0781 41.7656Z" fill="#141414"/>
</g>
<defs>
<clipPath id="clip0_107_1734">
<rect width="48" height="48" fill="white"/>
</clipPath>
</defs>
</svg>
