<svg width="24" height="25" viewBox="0 0 24 25" fill="none" xmlns="http://www.w3.org/2000/svg">
<g clip-path="url(#clip0_107_1790)">
<path d="M10.875 0.570312C9.41249 0.818748 8.10937 1.48906 7.08281 2.52031C6.14531 3.45312 5.51249 4.60625 5.19374 5.95625C5.05312 6.54219 5.03906 8.18281 5.17031 8.79687C5.38124 9.79062 5.84531 10.8359 6.40781 11.5812C6.74062 12.0266 7.34999 12.65 7.73906 12.9406L8.00624 13.1422L7.55624 13.3203C6.11718 13.8875 4.79062 14.75 3.61406 15.8984C3.27187 16.2312 2.83593 16.7 2.64843 16.9344C1.05937 18.9078 0.107806 21.3828 0.0140564 23.7828L-0.0140686 24.5H0.951556H1.92187V24.0781C1.92187 23.5156 2.03437 22.7328 2.22656 21.9922C2.83593 19.6344 4.31718 17.5203 6.33281 16.1562L6.60468 15.9688L7.83281 17.4453C8.89218 18.7156 9.07031 18.9125 9.13593 18.8609C9.17343 18.8328 9.61874 18.4578 10.125 18.0359L11.0391 17.2672L11.0531 20.8812L11.0625 24.5H12H12.9375L12.9469 20.8719L12.9609 17.2437L13.8047 17.9469C14.2687 18.3312 14.7234 18.7109 14.8219 18.7859L14.9906 18.9219L16.2 17.45L17.4141 15.9781L17.6766 16.1609C19.6781 17.5203 21.1687 19.6391 21.7734 21.9922C21.9656 22.7328 22.0781 23.5156 22.0781 24.0781V24.5H23.0391H24V24.0406C24 21.7484 23.0062 19.025 21.4359 17.0328C21 16.4797 19.8047 15.3172 19.2187 14.8859C18.2906 14.1969 17.3906 13.6859 16.4437 13.3203L15.9937 13.1422L16.2094 12.9781C17.5359 11.9797 18.4687 10.4891 18.8297 8.79687C18.9516 8.22969 18.9516 6.64531 18.8297 6.07812C18.4641 4.35781 17.5266 2.88594 16.1391 1.84062C15.3328 1.23594 14.1422 0.734375 13.125 0.570312C12.5859 0.485937 11.3719 0.485937 10.875 0.570312ZM12.9328 2.49687C14.9203 2.85312 16.5609 4.48906 16.9406 6.5C17.0344 6.99219 17.0344 7.88281 16.9406 8.375C16.5609 10.3859 14.9484 11.9937 12.9328 12.3828C12.4266 12.4766 11.5734 12.4766 11.0672 12.3828C9.05156 11.9937 7.43906 10.3859 7.05937 8.375C6.96562 7.87812 6.96562 6.99219 7.05937 6.5C7.47187 4.31094 9.35624 2.60469 11.5547 2.43125C12.0703 2.38906 12.4219 2.40781 12.9328 2.49687ZM11.3859 14.4406C11.3766 14.45 10.9031 14.8484 10.3406 15.3266L9.30937 16.1891L8.85468 15.6453C8.60624 15.3453 8.40937 15.0875 8.41874 15.0734C8.44218 15.0266 9.29062 14.7687 9.77343 14.6516C10.3594 14.5156 11.4609 14.3703 11.3859 14.4406ZM13.3219 14.4922C14.0953 14.5953 15.4406 14.9422 15.5812 15.0781C15.6375 15.1344 14.7703 16.1656 14.6906 16.1375C14.6437 16.1187 12.8672 14.6703 12.6375 14.4641C12.5719 14.4031 12.7125 14.4125 13.3219 14.4922Z" fill="#FF9900"/>
<path d="M14.8125 23.5625V24.5H17.1094H19.4062V23.5625V22.625H17.1094H14.8125V23.5625Z" fill="#FF9900"/>
</g>
<defs>
<clipPath id="clip0_107_1790">
<rect width="24" height="24" fill="white" transform="translate(0 0.5)"/>
</clipPath>
</defs>
</svg>
