<svg width="24" height="25" viewBox="0 0 24 25" fill="none" xmlns="http://www.w3.org/2000/svg">
<g clip-path="url(#clip0_107_1802)">
<path d="M11.1188 0.589063C10.9313 0.635938 10.5938 0.767188 10.3688 0.875C10.0313 1.04375 9.88126 1.15625 9.51095 1.52656C9.12189 1.91563 9.03283 2.0375 8.84533 2.42188C8.53595 3.06875 8.47033 3.40156 8.49376 4.16563C8.52189 4.86406 8.61564 5.21094 8.93439 5.79219C9.20158 6.27031 9.85783 6.89844 10.3594 7.14688C10.9078 7.41875 11.3813 7.53125 12 7.53125C12.6188 7.53125 13.0875 7.42344 13.6406 7.14688C13.9641 6.9875 14.1235 6.86563 14.4844 6.5C14.85 6.13906 14.9719 5.97969 15.1313 5.65625C15.4078 5.09844 15.5156 4.63438 15.5156 3.99688C15.5156 3.35938 15.4125 2.9375 15.1313 2.375C14.9719 2.05156 14.8453 1.89219 14.4844 1.53125C14.1235 1.16563 13.9641 1.04375 13.6406 0.884376C13.0781 0.603126 12.6188 0.5 11.9813 0.504688C11.6485 0.504688 11.3344 0.5375 11.1188 0.589063ZM12.8578 2.12656C13.2797 2.32813 13.6875 2.73125 13.8891 3.15781C14.0297 3.45781 14.0391 3.50469 14.0391 4.01563C14.0391 4.52656 14.0297 4.57344 13.8891 4.87344C13.6875 5.3 13.2844 5.70313 12.8578 5.90469C12.5578 6.04531 12.511 6.05469 12 6.05469C11.4891 6.05469 11.4422 6.04531 11.1422 5.90469C10.7156 5.70313 10.3125 5.3 10.111 4.87344C9.97033 4.57344 9.96095 4.52656 9.96095 4.01563C9.96095 3.50469 9.97033 3.45781 10.111 3.15781C10.2844 2.79219 10.6969 2.35156 11.0156 2.1875C11.3953 1.99063 11.5781 1.95313 12.0703 1.96719C12.4875 1.97656 12.5766 1.99531 12.8578 2.12656Z" fill="#AA16EF"/>
<path d="M5.7375 5.38916C3.67031 6.92666 2.27813 9.04541 1.69219 11.5626C1.59844 11.9657 1.45312 12.9548 1.45312 13.2032V13.3345L2.00625 13.3626C2.30625 13.3813 2.62969 13.4001 2.72344 13.4095L2.89688 13.4282L2.92969 13.0251C3.06563 11.3798 3.83438 9.53291 4.95938 8.13603C5.33906 7.6626 6.075 6.96416 6.6 6.5751L7.02656 6.25635L6.90469 6.06416C6.70312 5.73603 6.23438 5.04697 6.21563 5.04697C6.21094 5.04697 5.99531 5.20166 5.7375 5.38916Z" fill="#AA16EF"/>
<path d="M17.4938 5.45459C17.3438 5.67959 17.1609 5.95615 17.0953 6.06396L16.9734 6.25615L17.4 6.5749C17.925 6.96396 18.6609 7.6624 19.0406 8.13584C20.1469 9.50928 20.8828 11.2437 21.0563 12.903L21.1078 13.4233L21.3235 13.4093C21.4406 13.3999 21.7641 13.3812 22.0453 13.3624L22.5469 13.3343V13.203C22.5469 13.128 22.5141 12.8187 22.4766 12.514C22.1109 9.7249 20.6391 7.19365 18.375 5.46865C18.1828 5.32334 17.9672 5.16865 17.8969 5.12178L17.7703 5.04209L17.4938 5.45459Z" fill="#AA16EF"/>
<path d="M2.85938 15.3453C2.58281 15.3922 2.09531 15.5703 1.81406 15.7297C0.65625 16.3672 0 17.5016 0 18.8422C0 19.4844 0.0796875 19.8406 0.365625 20.4219C0.548438 20.8063 0.642188 20.9281 1.02656 21.3125C1.39219 21.6781 1.55156 21.8 1.875 21.9594C2.42344 22.2313 2.89688 22.3438 3.50156 22.3438C4.13438 22.3438 4.55625 22.2453 5.10938 21.9781C5.48906 21.7953 5.62031 21.6969 6.00469 21.3172C6.375 20.9469 6.4875 20.7969 6.64688 20.4688C6.92344 19.9063 7.03125 19.4469 7.03125 18.8141C7.03125 18.1719 6.95156 17.8156 6.66563 17.2344C6.48281 16.85 6.38906 16.7281 6.00469 16.3438C5.63906 15.9781 5.47969 15.8563 5.15625 15.6969C4.58906 15.4156 4.13438 15.3125 3.49688 15.3172C3.21094 15.3219 2.925 15.3359 2.85938 15.3453ZM4.41563 16.9625C4.84688 17.1781 5.19844 17.5344 5.40469 17.9703C5.54531 18.2703 5.55469 18.3172 5.55469 18.8281C5.55469 19.3391 5.54531 19.3859 5.40469 19.6859C5.19844 20.1219 4.84688 20.4781 4.41094 20.6938C4.06875 20.8625 4.05 20.8672 3.51563 20.8672C2.98125 20.8672 2.9625 20.8625 2.62031 20.6938C2.18438 20.4781 1.83281 20.1219 1.62656 19.6859C1.48594 19.3859 1.47656 19.3391 1.47656 18.8281C1.47656 18.3172 1.48594 18.2703 1.62656 17.975C1.87969 17.4406 2.31094 17.0516 2.88281 16.8453C3.06094 16.7844 3.22969 16.7656 3.59063 16.775C4.02656 16.7891 4.0875 16.8031 4.41563 16.9625Z" fill="#AA16EF"/>
<path d="M19.5938 15.4062C18.5859 15.6734 17.775 16.3343 17.325 17.2577C17.0531 17.8109 16.9641 18.1999 16.9594 18.8234C16.9594 19.4468 17.0484 19.8359 17.3203 20.3984C17.7703 21.3265 18.6844 22.053 19.6734 22.2687C20.1516 22.3765 20.8969 22.3671 21.3563 22.2499C21.9891 22.0905 22.4625 21.8234 22.95 21.3359C23.4141 20.8765 23.6484 20.5109 23.8453 19.939C24.0188 19.4421 24.0516 18.5374 23.9109 17.9843C23.6156 16.789 22.7766 15.8749 21.5953 15.4671C21.1172 15.2984 20.1094 15.2655 19.5938 15.4062ZM21.3844 16.9624C21.8156 17.178 22.1672 17.5343 22.3734 17.9702C22.5141 18.2702 22.5234 18.3171 22.5234 18.828C22.5234 19.339 22.5141 19.3859 22.3734 19.6859C22.1672 20.1218 21.8156 20.478 21.3797 20.6937C21.0375 20.8624 21.0188 20.8671 20.4844 20.8671C19.95 20.8671 19.9313 20.8624 19.5891 20.6937C19.1531 20.478 18.8016 20.1218 18.5953 19.6859C18.4547 19.3859 18.4453 19.339 18.4453 18.828C18.4453 18.3171 18.4547 18.2702 18.5953 17.9749C18.8484 17.4405 19.2797 17.0515 19.8516 16.8452C20.0297 16.7843 20.1984 16.7655 20.5594 16.7749C20.9953 16.789 21.0563 16.803 21.3844 16.9624Z" fill="#AA16EF"/>
<path d="M7.53281 22.7469C7.35468 23.0984 7.21874 23.3937 7.22812 23.3984C7.23749 23.4078 7.43906 23.5016 7.67812 23.6047C9.09843 24.2281 10.4016 24.5 12 24.5C13.5984 24.5 14.9016 24.2281 16.3219 23.6047C16.5609 23.5016 16.7625 23.4078 16.7719 23.3984C16.7859 23.3844 16.1859 22.1609 16.1437 22.1141C16.1391 22.1047 15.9 22.1937 15.6234 22.3109C14.5781 22.7516 13.6266 22.9812 12.6047 23.0422C11.0953 23.1312 9.68906 22.8828 8.32499 22.2922C8.09531 22.1891 7.89374 22.1094 7.87968 22.1094C7.86093 22.1094 7.70624 22.3953 7.53281 22.7469Z" fill="#AA16EF"/>
</g>
<defs>
<clipPath id="clip0_107_1802">
<rect width="24" height="24" fill="white" transform="translate(0 0.5)"/>
</clipPath>
</defs>
</svg>
