<svg width="24" height="25" viewBox="0 0 24 25" fill="none" xmlns="http://www.w3.org/2000/svg">
<g clip-path="url(#clip0_107_1779)">
<path d="M13.7109 0.593651C11.8078 0.898338 10.1719 1.72334 8.81719 3.07334C7.08281 4.78896 6.19219 6.94521 6.1875 9.41553C6.1875 11.1874 6.65156 12.7765 7.61719 14.2812L7.8375 14.6233L7.125 15.3358L6.4125 16.0483L6.19219 15.9827C5.92031 15.8983 5.5125 15.9312 5.2125 16.0624C5.03906 16.1374 4.50938 16.639 2.77031 18.3733C1.41094 19.728 0.482813 20.6937 0.370313 20.8624C0.1125 21.2515 0 21.6499 0 22.1515C0 22.9952 0.370313 23.6937 1.05 24.1343C1.81875 24.6312 2.87813 24.6312 3.6375 24.1296C3.80625 24.0171 4.77188 23.089 6.12656 21.7296C7.86094 19.9905 8.3625 19.4608 8.4375 19.2874C8.56875 18.9874 8.60156 18.5796 8.51719 18.3077L8.45156 18.0874L9.16406 17.3749L9.87656 16.6624L10.2188 16.8827C11.7234 17.8483 13.3125 18.3124 15.0844 18.3124C16.5047 18.3077 17.7516 18.0358 18.9609 17.4499C19.9172 16.9905 20.6813 16.4421 21.4547 15.6546C23.1234 13.9624 24 11.8202 24 9.42021C24 6.96865 23.1141 4.8124 21.4031 3.09678C20.025 1.72334 18.3984 0.898338 16.4531 0.593651C15.6938 0.471777 14.4516 0.471777 13.7109 0.593651ZM16.2422 1.5499C17.9766 1.81709 19.4625 2.56709 20.6953 3.80459C21.9281 5.03271 22.6828 6.53271 22.95 8.25771C23.0344 8.80146 23.0344 10.0108 22.95 10.5546C22.5328 13.2546 20.8031 15.5374 18.3281 16.6483C17.25 17.1265 16.2844 17.3327 15.0844 17.3327C12.4078 17.328 9.96563 16.0108 8.475 13.7655C7.59844 12.439 7.16719 11.014 7.16719 9.41553C7.16719 8.23428 7.36406 7.27803 7.8375 6.19521C8.90625 3.75771 11.2266 1.98115 13.8984 1.55459C14.4094 1.4749 15.7219 1.47021 16.2422 1.5499ZM8.45156 16.6812L7.80469 17.328L7.49063 17.014L7.17188 16.6952L7.81406 16.053L8.46094 15.4062L8.775 15.7202L9.09375 16.039L8.45156 16.6812ZM5.96719 16.953C6.05625 16.953 7.4625 18.3733 7.52813 18.5327C7.58438 18.664 7.58438 18.7108 7.52813 18.8374C7.49063 18.9265 6.54844 19.9015 5.31563 21.1343C2.91563 23.5202 2.925 23.5155 2.34375 23.5155C1.80469 23.5155 1.37344 23.2437 1.12969 22.7562C1.0125 22.5218 0.984375 22.414 0.984375 22.1608C0.984375 21.5702 0.975 21.5843 3.36563 19.1843C4.54219 18.003 5.57344 17.0093 5.64844 16.9718C5.72813 16.939 5.81719 16.9202 5.85 16.9296C5.8875 16.9437 5.93906 16.953 5.96719 16.953Z" fill="#0066FF"/>
<path d="M14.4984 2.37964C13.4344 2.45464 11.8734 2.97026 11.5828 3.34058C11.4328 3.53276 11.4516 3.79995 11.6203 3.97339C11.8078 4.16089 12.0234 4.1562 12.4547 3.94995C13.7953 3.30777 15.1594 3.16245 16.5703 3.52339C18.5719 4.02964 20.2172 5.56714 20.8547 7.5312C21.2437 8.74058 21.2437 10.114 20.85 11.3046C20.3625 12.7765 19.2094 14.1171 17.8312 14.8109C16.0781 15.6921 13.9359 15.664 12.2344 14.7406C10.2562 13.6625 9.04687 11.6328 9.04687 9.38276C9.04687 8.45464 9.25312 7.5312 9.63281 6.7812C9.85781 6.33589 9.86719 6.10151 9.67031 5.91401C9.50156 5.75933 9.21094 5.75464 9.02344 5.89995C8.78906 6.08276 8.37187 7.13745 8.175 8.04683C8.10469 8.36089 8.08594 8.64683 8.08594 9.4062C8.08594 10.2406 8.1 10.4328 8.19375 10.8546C8.49375 12.1953 9.09375 13.3203 10.0266 14.2953C12.1641 16.5218 15.5062 17.0796 18.3 15.6781C20.4844 14.5812 21.9609 12.3593 22.1156 9.93589C22.2187 8.3562 21.8812 6.96402 21.0844 5.67964C19.6828 3.42495 17.2125 2.19214 14.4984 2.37964Z" fill="#0066FF"/>
<path d="M10.3265 4.28281C9.98905 4.34844 9.86249 4.84062 10.1203 5.09844C10.2328 5.20625 10.2984 5.23438 10.4672 5.23438C10.8515 5.23438 11.0578 4.86406 10.8703 4.50312C10.7906 4.34844 10.5328 4.24531 10.3265 4.28281Z" fill="#0066FF"/>
</g>
<defs>
<clipPath id="clip0_107_1779">
<rect width="24" height="24" fill="white" transform="translate(0 0.5)"/>
</clipPath>
</defs>
</svg>
